<svg xmlns="http://www.w3.org/2000/svg" width="1200" height="420" viewBox="0 0 1200 420" role="img" aria-label="Alex Álvarez Almendros — Full Stack Developer en Barcelona">
<title>Alex Álvarez Almendros — Full Stack Developer en Barcelona</title>
<defs><pattern id="dots" width="22" height="22" patternUnits="userSpaceOnUse"><circle cx="1.5" cy="1.5" r="1.2" fill="#1f1f1b"/></pattern><radialGradient id="glow" cx="0.72" cy="0.45" r="0.55"><stop offset="0" stop-color="#ccff00" stop-opacity="0.13"/><stop offset="1" stop-color="#ccff00" stop-opacity="0"/></radialGradient><clipPath id="frame"><rect width="1200" height="420" rx="18"/></clipPath></defs>
<g clip-path="url(#frame)">
<rect width="1200" height="420" fill="#070706"/>
<rect width="1200" height="420" fill="url(#dots)"/>
<rect width="1200" height="420" fill="url(#glow)"><animate attributeName="opacity" values="0.6;1;0.6" dur="6s" repeatCount="indefinite"/></rect>
<rect x="754" y="349" width="4" height="4" fill="#ccff00" opacity="0"><animate attributeName="opacity" values="0;0.85;0" dur="2.75s" begin="3.22s" repeatCount="indefinite"/></rect>
<rect x="394" y="35" width="4" height="4" fill="#ccff00" opacity="0"><animate attributeName="opacity" values="0;0.85;0" dur="4.02s" begin="0.42s" repeatCount="indefinite"/></rect>
<rect x="1164" y="46" width="4" height="4" fill="#ccff00" opacity="0"><animate attributeName="opacity" values="0;0.85;0" dur="5.82s" begin="3.78s" repeatCount="indefinite"/></rect>
<rect x="83" y="129" width="4" height="4" fill="#ccff00" opacity="0"><animate attributeName="opacity" values="0;0.85;0" dur="4.45s" begin="0.80s" repeatCount="indefinite"/></rect>
<rect x="449" y="308" width="6" height="6" fill="#ccff00" opacity="0"><animate attributeName="opacity" values="0;0.85;0" dur="4.46s" begin="4.09s" repeatCount="indefinite"/></rect>
<rect x="792" y="65" width="4" height="4" fill="#ccff00" opacity="0"><animate attributeName="opacity" values="0;0.85;0" dur="4.48s" begin="3.71s" repeatCount="indefinite"/></rect>
<rect x="1144" y="176" width="8" height="8" fill="#ccff00" opacity="0"><animate attributeName="opacity" values="0;0.85;0" dur="4.55s" begin="2.72s" repeatCount="indefinite"/></rect>
<rect x="326" y="373" width="5" height="5" fill="#ccff00" opacity="0"><animate attributeName="opacity" values="0;0.85;0" dur="2.79s" begin="1.80s" repeatCount="indefinite"/></rect>
<rect x="951" y="163" width="4" height="4" fill="#ccff00" opacity="0"><animate attributeName="opacity" values="0;0.85;0" dur="2.91s" begin="2.51s" repeatCount="indefinite"/></rect>
<rect x="755" y="231" width="4" height="4" fill="#ccff00" opacity="0"><animate attributeName="opacity" values="0;0.85;0" dur="5.87s" begin="0.47s" repeatCount="indefinite"/></rect>
<rect x="948" y="320" width="8" height="8" fill="#ccff00" opacity="0"><animate attributeName="opacity" values="0;0.85;0" dur="4.53s" begin="2.74s" repeatCount="indefinite"/></rect>
<rect x="876" y="372" width="4" height="4" fill="#ccff00" opacity="0"><animate attributeName="opacity" values="0;0.85;0" dur="2.71s" begin="4.21s" repeatCount="indefinite"/></rect>
<rect x="891" y="358" width="6" height="6" fill="#ccff00" opacity="0"><animate attributeName="opacity" values="0;0.85;0" dur="2.58s" begin="2.77s" repeatCount="indefinite"/></rect>
<rect x="719" y="46" width="5" height="5" fill="#ccff00" opacity="0"><animate attributeName="opacity" values="0;0.85;0" dur="5.19s" begin="0.78s" repeatCount="indefinite"/></rect>
<rect x="1007" y="270" width="4" height="4" fill="#ccff00" opacity="0"><animate attributeName="opacity" values="0;0.85;0" dur="3.08s" begin="2.41s" repeatCount="indefinite"/></rect>
<rect x="740" y="297" width="6" height="6" fill="#ccff00" opacity="0"><animate attributeName="opacity" values="0;0.85;0" dur="4.97s" begin="5.92s" repeatCount="indefinite"/></rect>
<rect x="409" y="58" width="5" height="5" fill="#ccff00" opacity="0"><animate attributeName="opacity" values="0;0.85;0" dur="3.03s" begin="3.95s" repeatCount="indefinite"/></rect>
<rect x="32" y="150" width="6" height="6" fill="#ccff00" opacity="0"><animate attributeName="opacity" values="0;0.85;0" dur="2.51s" begin="2.51s" repeatCount="indefinite"/></rect>
<rect x="1179" y="80" width="4" height="4" fill="#ccff00" opacity="0"><animate attributeName="opacity" values="0;0.85;0" dur="4.10s" begin="5.23s" repeatCount="indefinite"/></rect>
<rect x="1007" y="217" width="4" height="4" fill="#ccff00" opacity="0"><animate attributeName="opacity" values="0;0.85;0" dur="4.19s" begin="2.40s" repeatCount="indefinite"/></rect>
<rect x="215" y="241" width="5" height="5" fill="#ccff00" opacity="0"><animate attributeName="opacity" values="0;0.85;0" dur="2.88s" begin="3.60s" repeatCount="indefinite"/></rect>
<rect x="124" y="290" width="4" height="4" fill="#ccff00" opacity="0"><animate attributeName="opacity" values="0;0.85;0" dur="5.82s" begin="3.68s" repeatCount="indefinite"/></rect>
<rect x="812" y="92" width="6" height="6" fill="#ccff00" opacity="0"><animate attributeName="opacity" values="0;0.85;0" dur="5.84s" begin="3.61s" repeatCount="indefinite"/></rect>
<rect x="505" y="265" width="8" height="8" fill="#ccff00" opacity="0"><animate attributeName="opacity" values="0;0.85;0" dur="4.18s" begin="1.87s" repeatCount="indefinite"/></rect>
<rect x="704" y="395" width="6" height="6" fill="#ccff00" opacity="0"><animate attributeName="opacity" values="0;0.85;0" dur="4.18s" begin="4.15s" repeatCount="indefinite"/></rect>
<rect x="548" y="286" width="6" height="6" fill="#ccff00" opacity="0"><animate attributeName="opacity" values="0;0.85;0" dur="3.01s" begin="3.26s" repeatCount="indefinite"/></rect>
<text y="92" font-family="'Space Mono',ui-monospace,SFMono-Regular,Menlo,Consolas,'DejaVu Sans Mono','Liberation Mono',monospace" font-size="14" xml:space="preserve" style="white-space:pre" ><tspan x="64.0 72.6 81.2" fill="#8a887f">// </tspan><tspan x="89.8 98.4 107.0 115.6 124.2 132.8 141.4 150.0 158.6 167.2 175.8 184.4 193.0 201.6 210.2 218.8 227.4 236.0 244.6 253.2" fill="#ccff00">FULL STACK DEVELOPER</tspan><tspan x="261.8 270.4 279.0 287.6 296.2 304.8 313.4 322.0 330.6 339.2 347.8 356.4" fill="#8a887f"> · BARCELONA</tspan></text>
<text x="66" y="196" font-family="'Syne','Archivo Black','Arial Black','Helvetica Neue',Helvetica,Arial,sans-serif" font-size="108" font-weight="800" textLength="262" lengthAdjust="spacingAndGlyphs" fill="#ccff00" opacity="0">ALEX<animate attributeName="opacity" dur="7s" repeatCount="indefinite" calcMode="discrete" keyTimes="0;0.86;0.87;0.88;0.9;0.91;1" values="0;0.9;0;0.7;0;0;0"/><animate attributeName="x" dur="7s" repeatCount="indefinite" calcMode="discrete" keyTimes="0;0.86;0.88;0.9;1" values="66;72;59;69;66"/></text><text x="62" y="196" font-family="'Syne','Archivo Black','Arial Black','Helvetica Neue',Helvetica,Arial,sans-serif" font-size="108" font-weight="800" textLength="262" lengthAdjust="spacingAndGlyphs" fill="#f2f0ea">ALEX<animate attributeName="x" dur="7s" repeatCount="indefinite" calcMode="discrete" keyTimes="0;0.86;0.87;0.88;0.9;1" values="62;58;65;60;62;62"/></text>
<text x="66" y="304" font-family="'Syne','Archivo Black','Arial Black','Helvetica Neue',Helvetica,Arial,sans-serif" font-size="108" font-weight="800" textLength="486" lengthAdjust="spacingAndGlyphs" fill="#f2f0ea" opacity="0">ÁLVAREZ<animate attributeName="opacity" dur="7s" repeatCount="indefinite" calcMode="discrete" keyTimes="0;0.86;0.87;0.88;0.9;0.91;1" values="0;0.9;0;0.7;0;0;0"/><animate attributeName="x" dur="7s" repeatCount="indefinite" calcMode="discrete" keyTimes="0;0.86;0.88;0.9;1" values="66;72;59;69;66"/></text><text x="62" y="304" font-family="'Syne','Archivo Black','Arial Black','Helvetica Neue',Helvetica,Arial,sans-serif" font-size="108" font-weight="800" textLength="486" lengthAdjust="spacingAndGlyphs" fill="none" stroke="#ccff00" stroke-width="2.2">ÁLVAREZ<animate attributeName="x" dur="7s" repeatCount="indefinite" calcMode="discrete" keyTimes="0;0.86;0.87;0.88;0.9;1" values="62;58;65;60;62;62"/></text>
<text y="348" font-family="'Space Mono',ui-monospace,SFMono-Regular,Menlo,Consolas,'DejaVu Sans Mono','Liberation Mono',monospace" font-size="14" xml:space="preserve" style="white-space:pre" ><tspan x="64.0 72.6 81.2 89.8 98.4 107.0 115.6 124.2 132.8" fill="#f2f0ea">Almendros</tspan><tspan x="141.4 150.0 158.6 167.2 175.8 184.4 193.0 201.6 210.2 218.8 227.4 236.0 244.6 253.2 261.8 270.4 279.0 287.6 296.2 304.8 313.4 322.0 330.6 339.2 347.8 356.4 365.0 373.6 382.2 390.8 399.4 408.0 416.6 425.2 433.8 442.4" fill="#8a887f"> · web, móvil y escritorio · +5 años</tspan></text>
<rect x="64" y="366" width="185" height="30" rx="15" fill="none" stroke="#23231f" stroke-width="1.5"/>
<circle cx="84" cy="381" r="4" fill="#ccff00"/><circle cx="84" cy="381" r="4" fill="none" stroke="#ccff00" stroke-width="1.5"><animate attributeName="r" values="4;12" dur="1.6s" begin="0s" repeatCount="indefinite"/><animate attributeName="opacity" values="0.9;0" dur="1.6s" begin="0s" repeatCount="indefinite"/></circle>
<text y="386" font-family="'Space Mono',ui-monospace,SFMono-Regular,Menlo,Consolas,'DejaVu Sans Mono','Liberation Mono',monospace" font-size="12" xml:space="preserve" style="white-space:pre" letter-spacing="0"><tspan x="98.0 105.4 112.8 120.2 127.6 135.0 142.4 149.8 157.2 164.6 172.0 179.4 186.8 194.2 201.6 209.0 216.4 223.8 231.2" fill="#f2f0ea">ABIERTO A PROYECTOS</tspan></text>
<rect x="640" y="58" width="500" height="304" rx="12" fill="#0d0d0b" stroke="#23231f" stroke-width="1.5"/><line x1="640" y1="96" x2="1140" y2="96" stroke="#23231f" stroke-width="1.5"/><circle cx="662" cy="77" r="5.5" fill="#ccff00"/><circle cx="680" cy="77" r="5.5" fill="#34342e"/><circle cx="698" cy="77" r="5.5" fill="#34342e"/>
<text y="82" font-family="'Space Mono',ui-monospace,SFMono-Regular,Menlo,Consolas,'DejaVu Sans Mono','Liberation Mono',monospace" font-size="12" xml:space="preserve" style="white-space:pre" ><tspan x="828.8 836.0 843.2 850.4 857.6 864.8 872.0 879.2 886.4 893.6 900.8 908.0 915.2 922.4 929.6 936.8 944.0" fill="#8a887f">alex@barcelona: ~</tspan></text>
<clipPath id="tl0"><rect x="662" y="112" width="0" height="28"><animate attributeName="width" dur="16.0s" repeatCount="indefinite" calcMode="discrete" keyTimes="0.0000;0.0500;0.0891;0.0938;0.0984;0.1031;0.1078;0.1125;0.9750" values="0.0;36.0;45.0;54.0;63.0;72.0;81.0;90.0;0.0"/></rect></clipPath>
<g clip-path="url(#tl0)"><text y="132" font-family="'Space Mono',ui-monospace,SFMono-Regular,Menlo,Consolas,'DejaVu Sans Mono','Liberation Mono',monospace" font-size="15" xml:space="preserve" style="white-space:pre" ><tspan x="664.0 673.0" fill="#ccff00">~ </tspan><tspan x="682.0 691.0" fill="#8a887f">$ </tspan><tspan x="700.0 709.0 718.0 727.0 736.0 745.0" fill="#f2f0ea">whoami</tspan></text></g>
<clipPath id="tl1"><rect x="662" y="140" width="0" height="28"><animate attributeName="width" dur="16.0s" repeatCount="indefinite" calcMode="discrete" keyTimes="0.0000;0.1344;0.9750" values="0.0;414.0;0.0"/></rect></clipPath>
<g clip-path="url(#tl1)"><text y="160" font-family="'Space Mono',ui-monospace,SFMono-Regular,Menlo,Consolas,'DejaVu Sans Mono','Liberation Mono',monospace" font-size="15" xml:space="preserve" style="white-space:pre" ><tspan x="664.0 673.0 682.0 691.0 700.0 709.0 718.0 727.0 736.0 745.0 754.0 763.0 772.0 781.0 790.0 799.0 808.0 817.0 826.0 835.0 844.0 853.0" fill="#f2f0ea">alex álvarez almendros</tspan><tspan x="862.0 871.0 880.0 889.0 898.0 907.0 916.0 925.0 934.0 943.0 952.0 961.0 970.0 979.0 988.0 997.0 1006.0 1015.0 1024.0 1033.0 1042.0 1051.0 1060.0" fill="#b5b3aa"> — full stack developer</tspan></text></g>
<clipPath id="tl2"><rect x="662" y="168" width="0" height="28"><animate attributeName="width" dur="16.0s" repeatCount="indefinite" calcMode="discrete" keyTimes="0.0000;0.1456;0.1847;0.1894;0.1941;0.1988;0.2034;0.2081;0.2128;0.2175;0.2222;0.2269;0.2316;0.2363;0.2409;0.9750" values="0.0;36.0;45.0;54.0;63.0;72.0;81.0;90.0;99.0;108.0;117.0;126.0;135.0;144.0;153.0;0.0"/></rect></clipPath>
<g clip-path="url(#tl2)"><text y="188" font-family="'Space Mono',ui-monospace,SFMono-Regular,Menlo,Consolas,'DejaVu Sans Mono','Liberation Mono',monospace" font-size="15" xml:space="preserve" style="white-space:pre" ><tspan x="664.0 673.0" fill="#ccff00">~ </tspan><tspan x="682.0 691.0" fill="#8a887f">$ </tspan><tspan x="700.0 709.0 718.0 727.0 736.0 745.0 754.0 763.0 772.0 781.0 790.0 799.0 808.0" fill="#f2f0ea">cat ahora.txt</tspan></text></g>
<clipPath id="tl3"><rect x="662" y="196" width="0" height="28"><animate attributeName="width" dur="16.0s" repeatCount="indefinite" calcMode="discrete" keyTimes="0.0000;0.2628;0.9750" values="0.0;396.0;0.0"/></rect></clipPath>
<g clip-path="url(#tl3)"><text y="216" font-family="'Space Mono',ui-monospace,SFMono-Regular,Menlo,Consolas,'DejaVu Sans Mono','Liberation Mono',monospace" font-size="15" xml:space="preserve" style="white-space:pre" ><tspan x="664.0 673.0 682.0 691.0 700.0 709.0 718.0 727.0 736.0 745.0 754.0 763.0 772.0" fill="#b5b3aa">consultor en </tspan><tspan x="781.0 790.0 799.0 808.0 817.0 826.0 835.0 844.0" fill="#f2f0ea">Capitole</tspan><tspan x="853.0 862.0 871.0 880.0 889.0 898.0 907.0 916.0 925.0 934.0 943.0 952.0 961.0 970.0 979.0 988.0 997.0 1006.0 1015.0 1024.0 1033.0 1042.0" fill="#b5b3aa">: .NET, Blazor y React</tspan></text></g>
<clipPath id="tl4"><rect x="662" y="224" width="0" height="28"><animate attributeName="width" dur="16.0s" repeatCount="indefinite" calcMode="discrete" keyTimes="0.0000;0.2741;0.9750" values="0.0;378.0;0.0"/></rect></clipPath>
<g clip-path="url(#tl4)"><text y="244" font-family="'Space Mono',ui-monospace,SFMono-Regular,Menlo,Consolas,'DejaVu Sans Mono','Liberation Mono',monospace" font-size="15" xml:space="preserve" style="white-space:pre" ><tspan x="664.0 673.0 682.0 691.0 700.0 709.0 718.0 727.0 736.0 745.0 754.0 763.0 772.0 781.0 790.0 799.0 808.0 817.0 826.0 835.0 844.0 853.0 862.0 871.0 880.0 889.0 898.0 907.0 916.0 925.0 934.0 943.0 952.0 961.0 970.0 979.0 988.0 997.0 1006.0 1015.0 1024.0" fill="#b5b3aa">+ productos propios: SaaS, IA local, Rust</tspan></text></g>
<clipPath id="tl5"><rect x="662" y="252" width="0" height="28"><animate attributeName="width" dur="16.0s" repeatCount="indefinite" calcMode="discrete" keyTimes="0.0000;0.2853;0.3244;0.3291;0.3337;0.3384;0.3431;0.3478;0.3525;0.3572;0.3619;0.9750" values="0.0;36.0;45.0;54.0;63.0;72.0;81.0;90.0;99.0;108.0;117.0;0.0"/></rect></clipPath>
<g clip-path="url(#tl5)"><text y="272" font-family="'Space Mono',ui-monospace,SFMono-Regular,Menlo,Consolas,'DejaVu Sans Mono','Liberation Mono',monospace" font-size="15" xml:space="preserve" style="white-space:pre" ><tspan x="664.0 673.0" fill="#ccff00">~ </tspan><tspan x="682.0 691.0" fill="#8a887f">$ </tspan><tspan x="700.0 709.0 718.0 727.0 736.0 745.0 754.0 763.0 772.0" fill="#f2f0ea">ls stack/</tspan></text></g>
<clipPath id="tl6"><rect x="662" y="280" width="0" height="28"><animate attributeName="width" dur="16.0s" repeatCount="indefinite" calcMode="discrete" keyTimes="0.0000;0.3837;0.9750" values="0.0;396.0;0.0"/></rect></clipPath>
<g clip-path="url(#tl6)"><text y="300" font-family="'Space Mono',ui-monospace,SFMono-Regular,Menlo,Consolas,'DejaVu Sans Mono','Liberation Mono',monospace" font-size="15" xml:space="preserve" style="white-space:pre" ><tspan x="664.0 673.0 682.0 691.0 700.0 709.0 718.0 727.0 736.0 745.0 754.0 763.0 772.0 781.0 790.0 799.0 808.0 817.0 826.0 835.0 844.0 853.0 862.0 871.0 880.0 889.0 898.0 907.0 916.0 925.0 934.0 943.0 952.0 961.0 970.0 979.0 988.0 997.0 1006.0 1015.0 1024.0 1033.0 1042.0" fill="#ccff00">react/  ts/  node/  dotnet/  rust/  kotlin/</tspan></text></g>
<clipPath id="tl7"><rect x="662" y="308" width="0" height="28"><animate attributeName="width" dur="16.0s" repeatCount="indefinite" calcMode="discrete" keyTimes="0.0000;0.3950;0.9750" values="0.0;36.0;0.0"/></rect></clipPath>
<g clip-path="url(#tl7)"><text y="328" font-family="'Space Mono',ui-monospace,SFMono-Regular,Menlo,Consolas,'DejaVu Sans Mono','Liberation Mono',monospace" font-size="15" xml:space="preserve" style="white-space:pre" ><tspan x="664.0 673.0" fill="#ccff00">~ </tspan><tspan x="682.0 691.0" fill="#8a887f">$ </tspan><tspan x="" fill="#f2f0ea"></tspan></text></g>
<rect x="700.0" y="118" width="9.0" height="18" fill="#ccff00"><animate attributeName="x" dur="16.0s" repeatCount="indefinite" calcMode="discrete" keyTimes="0.0000;0.0891;0.0938;0.0984;0.1031;0.1078;0.1125;0.1456;0.1847;0.1894;0.1941;0.1988;0.2034;0.2081;0.2128;0.2175;0.2222;0.2269;0.2316;0.2363;0.2409;0.2741;0.2853;0.3244;0.3291;0.3337;0.3384;0.3431;0.3478;0.3525;0.3572;0.3619;0.3950;0.9750" values="700.0;709.0;718.0;727.0;736.0;745.0;754.0;700.0;709.0;718.0;727.0;736.0;745.0;754.0;763.0;772.0;781.0;790.0;799.0;808.0;817.0;700.0;700.0;709.0;718.0;727.0;736.0;745.0;754.0;763.0;772.0;781.0;700.0;700.0"/><animate attributeName="y" dur="16.0s" repeatCount="indefinite" calcMode="discrete" keyTimes="0.0000;0.0891;0.0938;0.0984;0.1031;0.1078;0.1125;0.1456;0.1847;0.1894;0.1941;0.1988;0.2034;0.2081;0.2128;0.2175;0.2222;0.2269;0.2316;0.2363;0.2409;0.2741;0.2853;0.3244;0.3291;0.3337;0.3384;0.3431;0.3478;0.3525;0.3572;0.3619;0.3950;0.9750" values="118;118;118;118;118;118;118;174;174;174;174;174;174;174;174;174;174;174;174;174;174;230;258;258;258;258;258;258;258;258;258;258;314;118"/><animate attributeName="opacity" values="1;1;0;0" keyTimes="0;0.5;0.51;1" dur="1s" repeatCount="indefinite"/></rect>
</g>
<rect x="0.75" y="0.75" width="1198.5" height="418.5" rx="18" fill="none" stroke="#23231f" stroke-width="1.5"/>
</svg>
